<svg width="42" height="48" viewBox="0 0 42 48" fill="none" xmlns="http://www.w3.org/2000/svg">
<path d="M22.1502 22.8436C22.1502 17.7286 22.1502 12.6139 22.1502 7.49943C22.1451 5.02086 23.0055 2.94405 24.9728 1.39994C28.9467 -1.71639 35.0247 0.669676 35.8667 5.65788C35.9478 6.19255 35.9839 6.73309 35.9747 7.27379C35.9747 13.9948 35.9718 20.716 35.9658 27.4375C35.9658 27.8459 36.065 28.0175 36.4837 28.133C37.8787 28.5102 39.1161 29.3244 40.0145 30.4562C40.913 31.5879 41.4253 32.9777 41.4764 34.4219C41.5393 36.3544 41.5119 38.2899 41.4986 40.2247C41.4927 41.1702 40.9577 41.6681 39.9582 41.6815C38.5643 41.6992 37.1711 41.6866 35.7772 41.6866C33.6626 41.6866 31.5478 41.6866 29.4328 41.6866C28.1521 41.6866 27.6859 41.2153 27.6859 39.9368C27.6859 38.1826 27.6674 36.4284 27.6933 34.6741C27.7392 31.5497 29.7731 28.9253 32.7918 28.0996C33.1373 28.0049 33.2165 27.8703 33.2157 27.5366C33.2069 20.7007 33.2037 13.8645 33.2061 7.02813C33.2061 4.66646 31.446 2.81086 29.2034 2.77535C26.9002 2.7354 25.0424 4.52588 24.9336 6.89272C24.9211 7.17091 24.9211 7.44987 24.9211 7.7288C24.9211 18.0564 24.9211 28.3843 24.9211 38.7124C24.9211 42.593 22.5808 45.7774 18.9577 46.8724C13.7675 48.4409 8.39011 44.5092 8.32278 39.0919C8.31168 38.2041 8.30283 37.3214 8.3265 36.4365C8.33612 36.0666 8.24808 35.869 7.88258 35.6966C6.80903 35.1921 6.09061 34.3456 5.73696 33.2047C5.69404 33.0679 5.58896 32.9088 5.70068 32.7912C5.79613 32.6913 5.94189 32.8037 6.06249 32.8393C8.50037 33.5614 10.9375 33.5651 13.3739 32.8282C13.4797 32.7964 13.6306 32.7364 13.6935 32.7815C13.8156 32.8696 13.7276 33.022 13.6935 33.1419C13.3236 34.3345 12.5837 35.2135 11.4517 35.7314C11.1698 35.8609 11.0655 36.0096 11.0818 36.3181C11.1432 37.5922 10.9442 38.881 11.2386 40.1403C11.8956 42.9518 14.4438 44.7149 17.3344 44.3894C20.089 44.0794 22.1473 41.7073 22.1569 38.7745C22.1724 33.8233 22.1613 28.8721 22.1613 23.9216L22.1502 22.8436Z" fill="#59443E"/>
<path d="M9.69468 8.48493C12.3819 8.48493 15.0701 8.48493 17.7593 8.48493C18.8476 8.48493 19.3722 8.98733 19.3744 10.0638C19.3811 13.6848 19.4129 17.3064 19.367 20.9266C19.2967 26.503 14.8538 30.761 9.33215 30.6108C4.47712 30.4791 0.224347 26.412 0.0697141 21.5673C-0.0538443 17.6882 0.0230994 13.8024 0.0297582 9.91883C0.0297582 9.00139 0.59871 8.48789 1.53761 8.48641C4.2554 8.48197 6.97442 8.48148 9.69468 8.48493ZM9.6747 16.7796H12.3264C12.3597 16.7796 12.3922 16.7796 12.4248 16.7796C12.9538 16.7715 13.3785 16.574 13.65 16.1027C14.2049 15.1408 13.5398 14.031 12.3701 14.0199C10.618 13.9999 8.86604 14.0095 7.11698 14.0199C6.16625 14.0199 5.55879 14.5748 5.55953 15.4101C5.56027 16.2454 6.14406 16.7745 7.12291 16.7848C7.97228 16.787 8.82311 16.7804 9.6747 16.7796V16.7796ZM9.72871 19.5578C8.82903 19.5578 7.9286 19.5475 7.02818 19.5578C6.12776 19.5682 5.55957 20.1135 5.55661 20.9229C5.55365 21.7323 6.12628 22.3028 7.01117 22.3116C8.79475 22.3304 10.5791 22.3304 12.3641 22.3116C13.2564 22.3035 13.8298 21.7427 13.8343 20.9385C13.8394 20.1076 13.2616 19.5675 12.3316 19.5556C11.4645 19.5497 10.5966 19.5608 9.72871 19.5608V19.5578Z" fill="#59443E"/>
<path d="M8.31505 2.88564C8.31505 3.70468 8.30246 4.52445 8.32169 5.34275C8.32909 5.64758 8.23367 5.73192 7.93254 5.7297C6.34428 5.7154 4.75527 5.7154 3.16554 5.7297C2.85479 5.7297 2.77935 5.62389 2.78231 5.33386C2.79489 4.03909 2.78228 2.74432 2.79264 1.45102C2.80226 0.548381 3.33203 0.0223371 4.23763 0.0127188C5.46581 -0.00133878 6.69473 0.0208631 7.92365 0.000146747C8.26621 -0.00503235 8.32689 0.126668 8.32097 0.428535C8.30469 1.24683 8.31505 2.06661 8.31505 2.88564Z" fill="#59443E"/>
<path d="M11.0768 2.87302C11.0768 2.03771 11.0871 1.20163 11.0708 0.366314C11.0657 0.0881231 11.153 0.000103021 11.4319 0.0030625C12.6897 0.0156403 13.9549 -0.00286224 15.2156 0.0156345C16.0591 0.0274725 16.5858 0.561671 16.5969 1.41474C16.6147 2.72505 16.5969 4.03534 16.6103 5.34639C16.6103 5.65343 16.5074 5.73112 16.2137 5.7289C14.6244 5.71607 13.0352 5.71607 11.4459 5.7289C11.1285 5.7289 11.0657 5.6135 11.0708 5.32865C11.0864 4.51109 11.0768 3.69206 11.0768 2.87302Z" fill="#59443E"/>
<path d="M34.6053 44.4538C35.8165 44.4538 37.0277 44.4723 38.2374 44.4434C38.6591 44.433 38.7849 44.5721 38.7412 44.9702C38.7116 45.2454 38.7412 45.5258 38.7323 45.804C38.7027 46.626 38.2107 47.1942 37.4006 47.2098C35.5361 47.2408 33.6711 47.2408 31.8057 47.2098C30.9741 47.1972 30.4739 46.6179 30.4502 45.7722C30.4162 44.4552 30.4162 44.4552 31.7125 44.4552L34.6053 44.4538Z" fill="#59443E"/>
</svg>
