<svg width="48" height="52" viewBox="0 0 48 52" fill="none" xmlns="http://www.w3.org/2000/svg">
<path d="M22.252 43.6612C17.5812 43.6612 12.9105 43.6612 8.23978 43.6721C7.77489 43.6721 7.61548 43.5955 7.61985 43.0763C7.64386 38.3554 7.63731 33.6345 7.61985 28.9136C7.59454 28.7608 7.62777 28.6041 7.71278 28.4749C7.79779 28.3457 7.92832 28.2535 8.07822 28.2169C10.1888 27.3538 11.3848 25.7699 11.5442 23.4719C11.6118 22.4839 11.5813 21.4872 11.5704 20.4948C11.5704 20.1771 11.6642 20.0567 11.9829 19.98C13.0298 19.7471 14.0203 19.3084 14.8973 18.6891C15.7743 18.0698 16.5204 17.2823 17.0924 16.3719C17.1483 16.2754 17.2307 16.197 17.3297 16.1461C17.4288 16.0952 17.5403 16.074 17.651 16.085C23.7623 16.085 29.8736 16.085 35.9848 16.085C36.3624 16.085 36.452 16.2054 36.4367 16.5581C36.4083 17.1759 36.4476 17.7959 36.4214 18.4136C36.4061 18.7488 36.5306 18.8211 36.8361 18.8211C38.1151 18.8211 39.3941 18.7685 40.66 19.0511C44.4076 19.8836 47.426 23.1083 47.7971 26.9376C48.0459 29.5664 48.1572 32.2324 47.4195 34.824C46.7393 37.1377 45.3979 39.2003 43.5614 40.7563C41.7248 42.3123 39.4737 43.2934 37.0871 43.5779C36.523 43.6363 35.9561 43.6641 35.389 43.6612H22.252ZM36.4388 31.1743C36.4388 33.2226 36.4388 35.2731 36.4388 37.3236C36.4388 37.6193 36.4695 37.7617 36.8318 37.6982C39.2719 37.26 41.3759 35.3059 41.8845 32.8787C42.2577 31.0998 42.1944 29.2816 41.9805 27.4896C41.7971 25.9561 40.3195 24.7666 38.7786 24.7272C38.1479 24.7118 37.5127 24.7447 36.8841 24.7096C36.5021 24.6899 36.4323 24.8301 36.4367 25.1784C36.452 27.161 36.4432 29.1611 36.4432 31.1634L36.4388 31.1743Z" fill="#59443E"/>
<path d="M25.9131 13.1814C22.6065 13.1814 19.2977 13.1814 15.9911 13.1682C15.8209 13.1448 15.6482 13.1852 15.5059 13.2819C15.3637 13.3785 15.2621 13.5245 15.2207 13.6918C14.4284 15.6634 12.9944 16.8792 10.8794 17.2363C10.3494 17.3107 9.81262 17.3239 9.27958 17.2757C8.8256 17.2495 8.67283 17.3568 8.68374 17.8497C8.71648 19.5891 8.70338 21.3329 8.68374 23.0723C8.69675 23.6303 8.52736 24.1772 8.20139 24.6293C7.87543 25.0815 7.41083 25.4141 6.87873 25.5762C6.50456 25.6875 6.10975 25.7098 5.72551 25.6412C5.34128 25.5727 4.97819 25.4153 4.66512 25.1814C4.35206 24.9475 4.0976 24.6437 3.92189 24.2939C3.74618 23.9442 3.65411 23.5582 3.6529 23.1665C3.63762 20.7261 3.62667 18.2835 3.66377 15.843C3.66377 15.2275 3.51105 14.8748 2.96104 14.5286C2.47499 14.2372 2.05516 13.8467 1.72874 13.3823C1.40233 12.918 1.17651 12.3901 1.06587 11.8328C0.955223 11.2755 0.96227 10.7011 1.08643 10.1466C1.2106 9.59218 1.44911 9.07001 1.78672 8.61381C2.1271 8.12531 2.57262 7.71988 3.0902 7.42752C3.60779 7.13515 4.18424 6.96334 4.77692 6.9248C4.84119 6.91505 4.9062 6.91066 4.9712 6.91166C5.49284 6.93576 5.73288 6.69259 5.90967 6.18216C6.81326 3.56431 8.60517 1.7789 11.3029 1.20276C14.0005 0.626609 16.4909 1.1699 18.4858 3.26199C18.7543 3.5424 19.0031 3.96082 19.3261 4.0353C19.6492 4.10978 19.9809 3.69356 20.3061 3.48982C23.9335 1.20714 28.5017 2.36162 30.5424 6.14054C30.8938 6.79774 31.2322 7.01681 31.9677 6.94233C34.4908 6.67507 36.5686 8.78031 36.4398 11.3237C36.405 11.7611 36.405 12.2006 36.4398 12.6381C36.4878 13.1113 36.2914 13.1879 35.8702 13.1858C32.9848 13.1682 30.0972 13.1858 27.2118 13.1858L25.9131 13.1814Z" fill="#59443E"/>
<path d="M22.0423 46.5902C26.6476 46.5902 31.2529 46.5902 35.8582 46.5748C36.3689 46.5748 36.4693 46.7216 36.454 47.197C36.4191 48.2923 36.4256 49.4096 36.454 50.5159C36.4649 50.9036 36.3514 50.9978 35.9717 50.9978C30.3144 50.9847 24.6556 50.9847 18.9954 50.9978C15.381 50.9978 11.7645 50.9978 8.14796 51.0088C7.71145 51.0088 7.61538 50.8795 7.62629 50.4655C7.65394 49.3438 7.65394 48.2215 7.62629 47.0984C7.62629 46.6909 7.73108 46.588 8.13486 46.588C12.7685 46.5945 17.4065 46.5902 22.0423 46.5902Z" fill="#59443E"/>
</svg>
