<svg width="42" height="47" viewBox="0 0 42 47" fill="none" xmlns="http://www.w3.org/2000/svg">
<path d="M9.55362 46.9914C9.25322 46.8283 8.9087 46.8381 8.58991 46.7462C6.04452 46.0032 4.1698 44.3712 2.70461 42.2378C0.781016 39.4825 -0.163153 36.1618 0.0231013 32.8066C0.0841085 31.3208 0.469979 29.8665 1.15357 28.5459C2.92284 25.152 6.45647 23.8867 9.98152 25.3801C10.3727 25.5456 10.7491 25.7479 11.1709 25.949C11.276 25.1646 11.4254 24.3869 11.6184 23.6194C11.7054 23.2908 11.47 23.3913 11.3302 23.3962C10.4906 23.4392 9.64918 23.3566 8.83391 23.151C7.56624 22.816 6.44997 22.0603 5.66809 21.0078C4.72209 19.7616 4.09114 18.3054 3.82894 16.763C3.72227 16.1782 3.97851 15.5492 4.52658 15.3493C6.97879 14.4481 9.43101 14.2139 11.7986 15.6387C12.7219 16.1965 13.3926 17.0156 13.9124 17.9499C14.1209 18.3275 14.23 18.2674 14.4531 17.983C14.9048 17.4211 15.4503 16.9416 16.0655 16.5656C16.3592 16.3788 16.7133 16.3113 17.0552 16.3769C17.3971 16.4425 17.701 16.6364 17.9046 16.9187C18.3399 17.5134 18.2602 18.3667 17.6594 18.8081C15.797 20.1642 14.908 22.1064 14.3269 24.2386C14.2043 24.7045 14.0608 25.1741 14.0461 25.6989C14.5929 25.4867 15.0993 25.2513 15.629 25.0858C19.1528 24.0105 22.4854 25.6756 23.9665 29.2631C24.9976 31.7558 25.0087 34.327 24.4079 36.9116C23.6305 40.2576 22.0243 43.112 19.2583 45.227C18.1143 46.1 16.8392 46.6984 15.3997 46.9203C15.3436 46.9376 15.2909 46.9646 15.244 47H13.4992C13.1527 46.8423 12.7764 46.7607 12.3957 46.7607C12.015 46.7607 11.6388 46.8423 11.2923 47L9.55362 46.9914Z" fill="#59443E"/>
<path d="M21.4848 46.9914C22.7575 45.8573 23.9003 44.6128 24.7953 43.1537C26.8662 39.7782 27.7747 36.1097 27.4363 32.169C27.1911 29.349 26.2654 26.7742 24.2289 24.7069C23.134 23.5949 21.8195 22.8457 20.2771 22.3773C20.6523 22.1321 21.0348 22.0622 21.3978 21.9531C21.7607 21.844 22.1653 21.752 22.554 21.6723C25.1178 21.1439 27.6092 21.4578 30.097 22.2118C33.7753 23.3276 37.3396 22.896 40.7727 21.2138C40.9321 21.1353 41.0718 20.9992 41.3048 21.0151V21.5595C41.3048 29.4213 41.3089 37.2827 41.3171 45.1437C41.3171 46.0019 41.0927 46.626 40.2994 46.9939L21.4848 46.9914Z" fill="#59443E"/>
<path d="M25.6474 8.3544C27.299 8.3544 28.9494 8.36299 30.6009 8.34705C30.9332 8.34705 31.0484 8.40345 31.0129 8.77128C30.6953 12.0818 30.3998 15.4008 30.0945 18.715C30.0847 18.8217 30.059 18.9271 30.0553 19.0326C30.0479 19.2667 29.9682 19.3366 29.7206 19.268C26.3046 18.33 22.9267 18.4906 19.5929 19.6566C19.3477 19.7437 19.2791 19.713 19.2791 19.4458C19.2864 16.1892 19.2791 12.9339 19.2889 9.6786C19.2889 8.91229 19.9019 8.35808 20.6952 8.35563C22.3468 8.35073 23.9971 8.3544 25.6474 8.3544Z" fill="#59443E"/>
<path d="M41.3048 13.5383C41.3048 14.7927 41.3048 16.0457 41.3048 17.3C41.3174 17.4111 41.2981 17.5234 41.2493 17.6239C41.2004 17.7244 41.124 17.809 41.029 17.8677C38.6356 19.5021 36.002 20.2549 33.1059 20.022C32.83 19.9999 32.7123 19.9668 32.7454 19.6296C33.0679 16.2836 33.3658 12.9363 33.6736 9.58906C33.7116 9.18444 33.5706 8.63025 33.8673 8.42181C34.164 8.21337 34.6618 8.3556 35.0726 8.3556C36.6477 8.3556 38.2229 8.3556 39.798 8.3556C40.747 8.3556 41.2975 8.91225 41.3 9.86861C41.3073 11.091 41.3048 12.3147 41.3048 13.5383Z" fill="#59443E"/>
<path d="M36.491 0.00217974C37.6068 0.00217974 38.7226 0.00217974 39.8383 0.00217974C40.6966 0.00217974 41.2986 0.56251 41.3096 1.35825C41.317 2.17852 40.7162 2.74866 39.831 2.74989C38.134 2.74989 36.4383 2.76092 34.7414 2.74253C34.4079 2.74253 34.2865 2.83326 34.2632 3.16063C34.2142 3.87545 34.1234 4.58905 34.0756 5.30386C34.0597 5.54909 33.953 5.60303 33.7397 5.59935C33.0359 5.58954 32.3333 5.58832 31.6308 5.59935C31.3856 5.59935 31.2764 5.55154 31.3046 5.27199C31.442 3.88894 31.5437 2.50344 31.6958 1.12284C31.7681 0.465649 32.3591 0.00708416 33.0567 0.00217974C34.1995 -0.00272468 35.3446 0.00217974 36.491 0.00217974Z" fill="#59443E"/>
</svg>
