<svg width="50" height="50" viewBox="0 0 50 50" fill="none" xmlns="http://www.w3.org/2000/svg">
<path d="M0.00654021 0.01035C6.62136 0.01035 13.2366 0.00693559 19.8523 0C20.2762 0 20.3894 0.0987788 20.3881 0.530519C20.3759 16.8292 20.3725 33.1239 20.3777 49.4147C20.3777 49.5591 20.3607 49.7047 20.3516 49.8491H14.9978C15.0187 49.7716 15.0327 49.6924 15.0394 49.6124C15.0394 46.5954 15.0395 43.5772 15.0499 40.5602C15.0499 40.1831 14.8795 40.148 14.5778 40.148C11.787 40.1558 8.99636 40.1623 6.20565 40.148C5.78951 40.148 5.74272 40.3079 5.74402 40.6564C5.75443 43.7215 5.74402 46.7879 5.74402 49.8543H0L0.00654021 0.01035ZM6.11853 10.0354C6.11853 11.3358 6.12633 12.6284 6.11853 13.9249C6.11853 14.2279 6.18353 14.3579 6.51774 14.3462C7.23037 14.3228 7.94823 14.328 8.65696 14.3462C8.94825 14.3527 9.05749 14.2643 9.04708 13.9561C9.02888 13.2929 9.04704 12.6271 9.03794 11.9626C9.03794 11.7025 9.10042 11.5855 9.39041 11.5933C10.0861 11.6115 10.7844 11.6128 11.4814 11.5933C11.787 11.5842 11.8716 11.6986 11.8638 11.9834C11.8469 12.6479 11.8638 13.3124 11.8534 13.9769C11.8534 14.2513 11.9392 14.3437 12.2149 14.3372C12.9431 14.3229 13.674 14.3255 14.4035 14.3372C14.6571 14.3372 14.7832 14.2864 14.7832 13.9925C14.7737 11.383 14.7737 8.77304 14.7832 6.16266C14.7832 5.90257 14.6857 5.82978 14.4399 5.83368C13.7104 5.84538 12.9809 5.85579 12.2513 5.83368C11.9132 5.82198 11.8469 5.95459 11.8547 6.25498C11.8716 6.95201 11.8547 7.64905 11.8638 8.34608C11.8638 8.59576 11.7845 8.6881 11.5296 8.6842C10.8156 8.67119 10.0991 8.66729 9.38908 8.6842C9.10169 8.692 9.03407 8.58149 9.03927 8.3175C9.05228 7.62047 9.03145 6.92214 9.04835 6.22641C9.05616 5.93642 8.97554 5.82458 8.66864 5.83628C7.95601 5.85536 7.24298 5.85536 6.52948 5.83628C6.21608 5.82718 6.11199 5.91823 6.1172 6.24203C6.1263 7.50604 6.11593 8.77004 6.11593 10.0354H6.11853ZM10.3683 20.0681C11.6688 20.0681 12.9601 20.0616 14.2566 20.0681C14.5232 20.0681 14.6259 20.0044 14.6181 19.7196C14.5999 18.9744 14.5999 18.228 14.6181 17.4842C14.6259 17.1942 14.5128 17.1369 14.2514 17.1382C11.6908 17.146 9.13158 17.1499 6.57234 17.1382C6.22643 17.1382 6.17054 17.2683 6.17574 17.5648C6.19004 18.2618 6.19915 18.9588 6.17574 19.6545C6.16144 20.0174 6.30578 20.0772 6.62828 20.0733C7.86629 20.059 9.11863 20.0681 10.3657 20.0681H10.3683ZM10.3748 22.9889C9.1108 22.9889 7.8468 23.0005 6.58409 22.981C6.25378 22.981 6.16797 23.0864 6.17447 23.3946C6.19138 24.1241 6.18877 24.8537 6.17447 25.5819C6.17447 25.842 6.26418 25.9135 6.51386 25.9122C9.10517 25.9053 11.6973 25.9053 14.2904 25.9122C14.5505 25.9122 14.6194 25.8225 14.6142 25.5754C14.6012 24.8472 14.5947 24.1176 14.6142 23.3881C14.6233 23.0721 14.5297 22.9759 14.2085 22.9798C12.9379 22.9993 11.6518 22.9889 10.3722 22.9889H10.3748ZM10.3982 31.7485C11.6779 31.7485 12.9575 31.7394 14.2371 31.755C14.5362 31.755 14.6272 31.6769 14.6194 31.3752C14.5986 30.647 14.6025 29.9175 14.6194 29.188C14.6194 28.9279 14.557 28.8225 14.2709 28.8225C11.6943 28.8329 9.11861 28.8329 6.54377 28.8225C6.27068 28.8225 6.17181 28.9032 6.17701 29.1789C6.19131 29.8915 6.19782 30.6093 6.17701 31.318C6.16661 31.6535 6.26808 31.7602 6.61139 31.755C7.8663 31.7316 9.13163 31.7485 10.3956 31.7485H10.3982ZM10.4268 34.6692C9.1472 34.6692 7.86758 34.6809 6.58796 34.6614C6.26416 34.6614 6.16667 34.759 6.17447 35.0724C6.19268 35.8006 6.18747 36.5301 6.17447 37.2597C6.17447 37.5106 6.25764 37.5939 6.50993 37.5939C9.10297 37.5861 11.6952 37.5861 14.2865 37.5939C14.5466 37.5939 14.6194 37.5133 14.6155 37.261C14.6012 36.5484 14.5908 35.8305 14.6155 35.1231C14.6298 34.7655 14.5375 34.6523 14.1643 34.6602C12.9198 34.6849 11.6713 34.6692 10.4242 34.6692H10.4268Z" fill="#59443E"/>
<path d="M23.271 49.8491C23.2797 48.1637 23.2888 46.4775 23.2983 44.7904C23.2983 43.6071 23.3165 42.4224 23.2892 41.239C23.2801 40.8255 23.3685 40.685 23.8094 40.6915C25.8211 40.7175 27.8329 40.6915 29.8433 40.711C30.2049 40.711 30.3219 40.6239 30.305 40.2546C30.2751 39.5745 30.2803 38.8917 30.305 38.2116C30.3167 37.8735 30.2153 37.7721 29.872 37.7747C27.8446 37.7903 25.8173 37.7747 23.7899 37.7916C23.379 37.7916 23.2632 37.6759 23.284 37.2714C23.3217 36.6395 23.3217 36.0059 23.284 35.3741C23.2541 34.9228 23.4218 34.8448 23.8328 34.8539C25.8276 34.8747 27.8225 34.8539 29.8147 34.8721C30.1866 34.8721 30.3245 34.7902 30.305 34.3949C30.2712 33.7317 30.2764 33.0646 30.305 32.4C30.3193 32.0437 30.2257 31.9306 29.8511 31.9345C27.8394 31.954 25.8276 31.9345 23.8159 31.954C23.3828 31.954 23.258 31.8434 23.2827 31.4156C23.3191 30.7524 23.3074 30.0853 23.2827 29.4208C23.2723 29.0943 23.388 29.015 23.7014 29.0163C25.7288 29.0293 27.7574 29.0164 29.7848 29.032C30.1749 29.032 30.3297 28.9565 30.305 28.5339C30.2699 27.9024 30.2699 27.2694 30.305 26.6379C30.3258 26.2269 30.2321 26.0839 29.7848 26.0904C27.7899 26.119 25.7951 26.0904 23.8028 26.1125C23.4023 26.1125 23.2827 26.0123 23.2892 25.604C23.3057 22.0495 23.3057 18.495 23.2892 14.9405C23.2892 14.5348 23.3465 14.4633 23.7275 14.6804C28.2235 17.2631 32.7255 19.8354 37.2337 22.3972C37.5484 22.5754 37.6368 22.7808 37.6368 23.128C37.6264 30.8499 37.6242 38.5714 37.6303 46.2925C37.6303 47.0376 37.5835 46.9219 38.2441 46.9219C41.9425 46.9219 45.6409 46.9197 49.3393 46.9153C49.7294 46.9153 49.8724 46.9908 49.8594 47.4108C49.823 48.221 49.849 49.0337 49.849 49.8439L23.271 49.8491Z" fill="#59443E"/>
<path d="M8.66995 49.8491C8.66995 47.7684 8.68551 45.6747 8.6582 43.5889C8.6582 43.1428 8.78824 43.0479 9.20307 43.0687C10.0431 43.0999 10.8859 43.0817 11.7259 43.0687C11.9639 43.0687 12.1277 43.0921 12.1264 43.4003C12.1147 45.5187 12.1147 47.6384 12.1095 49.7581C12.1039 49.7896 12.0929 49.82 12.077 49.8478L8.66995 49.8491Z" fill="#59443E"/>
<path d="M44.26 9.29026L41.7528 6.79082C41.074 6.1133 41.0753 6.11329 41.7398 5.44747C42.1299 5.05734 42.5292 4.67632 42.9102 4.27709C43.087 4.08723 43.1962 4.10023 43.3744 4.27709C45.4551 6.3699 47.5423 8.45667 49.636 10.5373C49.822 10.722 49.7972 10.8234 49.6256 10.9938C47.5449 13.064 45.4698 15.1404 43.4004 17.2228C43.1716 17.4543 43.0571 17.4009 42.8673 17.2007C42.3744 16.6805 41.8737 16.1747 41.3523 15.6883C41.1195 15.4711 41.1182 15.3424 41.3523 15.12C42.191 14.3072 43.0103 13.475 43.8322 12.6492C43.9427 12.5387 44.0923 12.4555 44.1326 12.2734C43.9713 12.1577 43.788 12.2162 43.6189 12.2162C39.1585 12.2162 34.6993 12.2058 30.2389 12.224C29.7889 12.224 29.6563 12.1017 29.6836 11.6596C29.72 11.0281 29.72 10.395 29.6836 9.76357C29.6615 9.36044 29.8136 9.28502 30.1803 9.28632C34.6408 9.29673 39.1008 9.29893 43.5604 9.29286L44.26 9.29026Z" fill="#59443E"/>
</svg>
