<svg width="54" height="54" viewBox="0 0 54 54" fill="none" xmlns="http://www.w3.org/2000/svg">
<path d="M28.5781 0C28.5781 1.99898 28.5707 3.99691 28.5855 5.99589C28.5855 6.33082 28.5084 6.45231 28.1534 6.44069C27.3834 6.41322 26.6121 6.41322 25.8394 6.44069C25.4844 6.45231 25.4051 6.33504 25.4083 5.99589C25.422 3.99691 25.4146 1.99898 25.4146 0H28.5781Z" fill="#59443E"/>
<path d="M0 25.412C1.9991 25.412 3.9982 25.4194 5.99624 25.4046C6.33119 25.4046 6.45375 25.4817 6.44107 25.8367C6.41466 26.607 6.41466 27.3803 6.44107 28.1506C6.45375 28.5056 6.33541 28.5848 5.99624 28.5827C3.9982 28.5679 1.9991 28.5753 0 28.5753V25.412Z" fill="#59443E"/>
<path d="M27.0142 44.4995C22.4444 44.4995 17.8756 44.4932 13.3069 44.509C12.8842 44.509 12.7479 44.4266 12.749 43.9723C12.7659 38.3673 12.6909 32.7602 12.7786 27.1563C12.8747 21.0051 15.7836 16.5539 21.3519 13.9495C26.5715 11.5078 33.2757 12.9099 37.2211 17.1107C39.9112 19.975 41.2362 23.3623 41.2362 27.281C41.2362 32.8331 41.2298 38.3863 41.2478 43.9385C41.2478 44.4076 41.1316 44.5132 40.6709 44.5111C36.1137 44.4921 31.5703 44.4995 27.0142 44.4995ZM25.4145 26.9831C25.4145 28.44 25.4219 29.897 25.4145 31.354C25.4145 31.6435 25.4822 31.7544 25.7918 31.747C26.599 31.7259 27.4066 31.7259 28.2145 31.747C28.5315 31.7544 28.5896 31.6413 28.5886 31.3519C28.5801 28.4548 28.5801 25.5578 28.5886 22.6607C28.5886 22.349 28.522 22.2307 28.185 22.2381C27.3957 22.2635 26.6001 22.2645 25.815 22.2381C25.4737 22.2265 25.4093 22.3512 25.4124 22.6607C25.423 24.1029 25.4145 25.543 25.4145 26.9831V26.9831ZM25.4515 36.4338H25.4145C25.4145 36.8565 25.4335 37.2791 25.4082 37.6964C25.3902 38.0081 25.5138 38.0789 25.8012 38.0725C26.6074 38.0556 27.4147 38.0567 28.2219 38.0725C28.4903 38.0725 28.5896 38.0049 28.5844 37.7207C28.5675 36.8966 28.5675 36.0725 28.5844 35.2484C28.5907 34.961 28.484 34.8892 28.2188 34.8997C27.7961 34.9177 27.3735 34.8892 26.9508 34.9082C26.449 34.9314 25.7791 34.6821 25.4959 35.0138C25.2603 35.2938 25.4515 35.9457 25.4515 36.4338V36.4338Z" fill="#59443E"/>
<path d="M26.9995 53.9894C21.3776 53.9894 15.7554 53.9929 10.1329 53.9999C9.69439 53.9999 9.56653 53.8943 9.58554 53.4526C9.62253 52.6074 9.58556 51.7622 9.59929 50.9233C9.62994 49.012 10.9539 47.6702 12.8748 47.6681C22.2913 47.6575 31.7077 47.6575 41.1242 47.6681C43.0631 47.6681 44.3775 49.0215 44.3997 50.9708C44.4092 51.796 44.3764 52.6233 44.4124 53.4474C44.4314 53.8805 44.3162 54.002 43.8703 53.9999C38.2449 53.9837 32.6213 53.9802 26.9995 53.9894Z" fill="#59443E"/>
<path d="M50.8005 25.412C51.7314 25.412 52.6612 25.4194 53.5921 25.4067C53.8626 25.4067 54.0074 25.4395 53.9989 25.7691C53.9767 26.5932 53.9841 27.4184 53.9989 28.2435C53.9989 28.4865 53.9355 28.5806 53.6756 28.5795C51.7448 28.5711 49.814 28.5711 47.8832 28.5795C47.6265 28.5795 47.5547 28.4908 47.5578 28.2446C47.5694 27.4205 47.5768 26.5953 47.5578 25.7702C47.5483 25.4447 47.6899 25.4035 47.9625 25.4067C48.906 25.4205 49.8496 25.412 50.8005 25.412Z" fill="#59443E"/>
<path d="M11.3395 13.5375C11.2338 13.4519 11.1419 13.379 11.0573 13.2945C9.74187 11.9822 8.43167 10.6647 7.11091 9.35885C6.92389 9.1729 6.89324 9.05774 7.09928 8.86016C7.69415 8.29069 8.27529 7.70641 8.84797 7.11369C9.02653 6.9288 9.13959 6.88443 9.34562 7.09363C10.6636 8.43191 11.9893 9.75892 13.3227 11.0747C13.5034 11.2543 13.5552 11.3768 13.3428 11.5797C12.7352 12.1619 12.1488 12.7651 11.5518 13.3589C11.4948 13.4191 11.4198 13.473 11.3395 13.5375Z" fill="#59443E"/>
<path d="M47.0951 9.10417C47.0264 9.18553 46.9672 9.26584 46.8975 9.33663C45.5715 10.6637 44.2401 11.9843 42.9225 13.3198C42.7059 13.5396 42.5791 13.5142 42.3794 13.3071C41.8216 12.726 41.2531 12.1534 40.6688 11.5987C40.4385 11.38 40.4902 11.2522 40.6889 11.0556C42.0096 9.74904 43.3244 8.4361 44.6332 7.11683C44.7737 6.97525 44.8794 6.83578 45.0917 7.0566C45.6982 7.69053 46.3269 8.3012 46.945 8.92139C46.9968 8.96999 47.0327 9.0281 47.0951 9.10417Z" fill="#59443E"/>
</svg>
