<svg width="53" height="49" viewBox="0 0 53 49" fill="none" xmlns="http://www.w3.org/2000/svg">
<path d="M-0.000225049 29.2355C0.188499 30.3282 0.303625 31.4341 0.616907 32.5042C1.59072 35.8389 3.42322 38.5999 6.16727 40.8967C6.2371 39.8191 6.30694 38.8208 6.36922 37.8281C6.42772 36.8845 6.46923 35.9408 6.54094 35.0085C6.55833 34.7705 6.49592 34.5334 6.36355 34.3348C2.81554 28.4013 4.6537 21.1241 10.5985 17.6138C10.908 17.4251 10.9382 17.2798 10.7872 16.9741C10.2211 15.804 9.68511 14.6169 9.58509 13.2902C9.55112 12.8278 9.28692 13.1524 9.17179 13.209C7.13868 14.2162 5.33872 15.6376 3.88751 17.3817C1.73668 19.9222 0.413157 23.0591 0.0941371 26.3725C0.0709595 26.5058 0.0394436 26.6376 -0.000225049 26.767V29.2355Z" fill="#59443E"/>
<path d="M26.338 48.9949C30.2484 48.9949 34.1568 49.0062 38.0672 48.9949C40.2206 48.9855 41.8077 48.0362 42.7136 46.0433C43.0376 45.283 43.1673 44.4542 43.0911 43.6314C42.803 38.8592 42.5098 34.0857 42.2116 29.311C42.0738 27.0463 41.9323 24.7929 41.8058 22.5339C41.7757 22.0017 41.6587 21.5374 41.1095 21.3317C40.5603 21.126 40.1243 21.4129 39.7525 21.8073C38.2139 23.4496 36.3902 24.7994 34.3701 25.7913C31.5633 27.186 28.44 27.821 25.3114 27.6332C21.05 27.386 17.3434 25.7856 14.1388 22.9944C13.6727 22.5905 13.2518 22.1357 12.8178 21.6997C12.4667 21.3487 12.0629 21.143 11.5703 21.3223C11.0778 21.5015 10.9098 21.9111 10.8796 22.4188C10.6166 26.8349 10.3487 31.2498 10.0757 35.6634C9.91901 38.1961 9.78123 40.7288 9.5944 43.2596C9.45663 45.1468 9.92086 46.7567 11.4476 47.9645C12.3913 48.7081 13.4783 48.993 14.6559 48.993C18.5512 48.9918 22.4453 48.9924 26.338 48.9949Z" fill="#59443E"/>
<path d="M26.3419 11.4162C22.6052 11.4162 18.8665 11.4615 15.1317 11.3936C13.5803 11.3672 12.816 12.6127 13.3558 13.9659C15.3374 18.9161 18.8949 21.9792 24.1357 22.9152C30.7184 24.091 37.3068 20.0447 39.4073 13.6677C39.8093 12.4505 39.0676 11.4162 37.7578 11.4124C33.9513 11.4106 30.1466 11.4162 26.3419 11.4162Z" fill="#59443E"/>
<path d="M26.2834 0.00964355H18.2645C17.1661 0.00964355 16.6698 0.507868 16.6698 1.60624C16.6698 3.59288 16.6698 5.5808 16.6698 7.56995C16.6698 8.62492 17.1906 9.15149 18.2399 9.15337C23.6009 9.15337 28.9639 9.15337 34.3287 9.15337C35.378 9.15337 35.897 8.62298 35.897 7.56801C35.897 5.56376 35.897 3.55895 35.897 1.55344C35.897 0.525523 35.3824 0.0109017 34.3532 0.00964355H26.2834Z" fill="#59443E"/>
<path d="M46.5261 40.8534C47.4886 40.1146 48.3502 39.253 49.089 38.2906C51.5952 35.0823 52.8842 31.4229 52.6426 27.3446C52.2652 20.9393 49.1456 16.2324 43.4952 13.2034C43.3744 13.1374 43.1177 12.8354 43.0894 13.2959C43.0026 14.617 42.4723 15.7814 41.9042 16.9345C41.7155 17.2987 41.7986 17.4441 42.1345 17.6403C43.5174 18.4405 44.7263 19.5091 45.6902 20.7834C46.654 22.0576 47.3532 23.5118 47.7468 25.0602C48.1403 26.6087 48.2202 28.2203 47.9817 29.8001C47.7432 31.3799 47.1912 32.8961 46.3582 34.2594C46.1889 34.5335 46.1165 34.8565 46.1524 35.1766C46.277 36.9733 46.3789 38.7623 46.4903 40.5666C46.494 40.6458 46.5091 40.7232 46.5261 40.8534Z" fill="#59443E"/>
<path d="M13.6689 4.6165V1.78564C13.6689 0.441919 13.1896 -0.0242672 11.8402 0.00215417C9.63965 0.0417863 7.94303 1.33269 7.32402 3.4332C6.56912 5.99985 8.50163 8.83819 11.1626 9.0741C11.6061 9.11184 12.044 9.19303 12.4837 9.11188C13.2613 8.96845 13.6501 8.53443 13.6576 7.74179C13.6765 6.70569 13.6689 5.66203 13.6689 4.6165Z" fill="#59443E"/>
<path d="M39.0012 4.62212C39.0012 5.63179 39.0012 6.64152 39.0012 7.6512C39.0012 8.58161 39.4617 9.07039 40.3884 9.14966C42.4473 9.32328 44.4837 8.11355 45.1706 6.30746C45.5517 5.35292 45.6012 4.29799 45.3109 3.31201C45.0207 2.32603 44.4077 1.46616 43.5703 0.8703C42.5417 0.115403 41.3527 -0.0884081 40.109 0.0323755C39.473 0.0946545 39.0106 0.715502 39.0031 1.43832C38.9937 2.49895 39.0012 3.5596 39.0012 4.62212Z" fill="#59443E"/>
</svg>
