<svg width="48" height="47" viewBox="0 0 48 47" fill="none" xmlns="http://www.w3.org/2000/svg">
<path d="M46.9974 28.1006C46.8172 28.553 46.4949 28.8897 46.1359 29.2041C42.1574 32.7301 38.1697 36.247 34.2188 39.8033C32.6327 41.2303 30.8282 41.8997 28.7028 41.8866C23.7379 41.8563 18.773 41.88 13.8094 41.8695C13.6685 41.8572 13.527 41.8863 13.4023 41.9531C13.2776 42.0199 13.175 42.1215 13.1071 42.2457C12.1628 43.6924 11.1882 45.1233 10.2413 46.5714C10.0624 46.8462 9.96377 46.8818 9.71519 46.6332C6.53765 43.4399 3.3531 40.2535 0.161528 37.0743C-0.0239162 36.8901 -0.0752099 36.7889 0.14443 36.5745C3.19176 33.5982 6.19438 30.5719 9.27986 27.6403C11.6354 25.4044 14.5104 24.7218 17.6972 25.219C18.677 25.3883 19.6272 25.6984 20.5183 26.1396C21.386 26.5306 22.3286 26.7277 23.2802 26.717C24.8125 26.7341 26.3447 26.717 27.8835 26.7275C28.9685 26.7367 29.9773 27.0024 30.8124 27.735C31.1794 28.0506 31.4672 28.448 31.6527 28.8951C31.8383 29.3422 31.9163 29.8266 31.8806 30.3093C31.8449 30.792 31.6965 31.2597 31.4473 31.6746C31.198 32.0896 30.8549 32.4403 30.4455 32.6986C29.5959 33.2588 28.6621 33.4653 27.6599 33.4627C25.8515 33.4561 24.0444 33.4627 22.236 33.4627C22.1334 33.4627 22.0295 33.4719 21.819 33.4811C22.3872 34.0493 22.8857 34.5543 23.3973 35.0515C23.5065 35.158 23.6603 35.1199 23.7919 35.1199C25.8146 35.1199 27.8374 35.1199 29.8602 35.1199C30.1194 35.1121 30.368 35.015 30.5639 34.845C34.1583 32.2146 37.7436 29.5657 41.3485 26.9537C42.5441 26.0896 43.8869 25.674 45.3744 26.0857C46.0859 26.283 46.7001 26.6302 47.0066 27.3588L46.9974 28.1006Z" fill="#59443E"/>
<path d="M28.0635 20.3093C30.0364 18.0866 32.4366 16.9003 35.3182 16.6702C33.9009 16.4034 32.442 16.4537 31.0464 16.8175C30.8689 16.8648 30.694 16.9214 30.5203 16.949C29.9561 17.0555 29.6957 16.7859 29.8627 16.2335C30.1771 15.1945 30.8794 14.4554 31.8 13.9398C33.5361 12.9679 35.2301 13.248 36.8294 14.2699C37.729 14.846 38.5642 15.5259 39.419 16.1717C39.6729 16.3637 40.1174 16.4479 40.1582 16.7254C40.1911 16.9424 39.8491 17.212 39.6821 17.4645C39.0337 18.447 38.4274 19.4558 37.7093 20.3922C35.6549 23.0621 32.5024 22.7109 30.8847 21.0498C30.6979 20.8565 30.5953 20.9354 30.4401 21.0787C29.6742 21.7883 29.0584 22.6443 28.6291 23.596C28.3555 24.1984 27.9465 24.6482 27.26 24.7653C26.1828 24.9454 25.295 24.1077 25.3332 22.9174C25.3792 21.5088 25.4318 20.1002 25.5147 18.6943C25.6462 16.4795 25.8053 14.2633 26.242 12.084C26.6142 10.2283 26.9574 8.36201 27.6979 6.60226C28.0306 5.79578 28.4472 5.02653 28.9408 4.30722C29.0648 4.13826 29.1707 3.95662 29.2564 3.76536C28.2602 4.15894 27.3807 4.79988 26.701 5.62769C25.7438 6.76079 25.1802 8.174 25.0951 9.65485C25.0859 9.78637 25.0451 9.9271 25.0372 10.0639C25.0162 10.4453 24.836 10.7123 24.4651 10.803C24.0508 10.9043 23.7747 10.7044 23.5537 10.3545C21.3455 6.85478 22.8961 2.70662 26.8706 1.4427C28.2385 1.00737 29.651 0.870587 31.0622 0.703556C32.0723 0.582557 33.1205 0.607546 34.0319 0.0459527C34.2187 -0.0697855 34.245 0.0551591 34.2621 0.177473C34.5607 2.20684 34.8776 4.22963 34.5186 6.29318C34.1911 8.16998 33.4427 9.82714 32.1025 11.1871C31.2371 12.0656 30.2192 12.6956 28.9618 12.8561C28.879 12.8567 28.799 12.8868 28.7363 12.941C28.6737 12.9953 28.6324 13.0701 28.6199 13.152C28.4279 13.995 28.0096 19.1375 28.0635 20.3093Z" fill="#59443E"/>
<path d="M17.7801 16.6675C19.4136 16.8267 20.9366 17.2568 22.3518 18.088C23.6078 18.8298 23.7722 19.9293 22.7831 21.0104C21.3811 22.5399 18.3772 23.0476 16.3873 20.9288C15.6495 20.1397 15.0603 19.2493 14.4921 18.3392C14.2111 17.8475 13.8918 17.3787 13.5372 16.9372C13.4294 16.8122 13.3373 16.7149 13.557 16.5873C14.5684 16.0021 15.4206 15.1972 16.382 14.5435C17.8051 13.5755 19.3465 13.0691 21.0668 13.5926C22.4872 14.0253 23.3803 15.0222 23.8708 16.4045C23.915 16.5112 23.9252 16.629 23.9 16.7417C23.8748 16.8545 23.8155 16.9567 23.7301 17.0345C23.5289 17.2344 23.2842 17.2239 23.0449 17.1331C22.302 16.848 21.5267 16.6558 20.7367 16.561C19.7521 16.4312 18.7528 16.4672 17.7801 16.6675V16.6675Z" fill="#59443E"/>
</svg>
