<svg width="39" height="42" viewBox="0 0 39 42" fill="none" xmlns="http://www.w3.org/2000/svg">
<path d="M6.82994 41.574C7.55716 41.2689 7.8155 40.7319 7.81346 39.9467C7.79787 28.6488 7.79787 17.3509 7.81346 6.053C7.81346 5.41528 7.61004 4.94945 7.12489 4.54261C5.52907 3.2031 3.95359 1.83918 2.37201 0.484408C2.05875 0.215895 1.73226 -0.00888376 1.29186 0.000270086C0.971033 0.0063954 0.663712 0.130514 0.428618 0.348909C0.193524 0.567304 0.0471388 0.864665 0.017435 1.18417C0.00421275 1.34589 0.0103208 1.50862 0.0103208 1.67136C0.0103208 14.4311 0.00693295 27.1906 0.000152323 39.9497C0.000152323 40.7339 0.254429 41.278 0.982669 41.5771L6.82994 41.574Z" fill="#59443E"/>
<path d="M17.2248 41.574C17.951 41.2689 18.2104 40.7329 18.2093 39.9467C18.191 31.6133 18.191 23.2799 18.2093 14.9465C18.2215 14.6579 18.1641 14.3706 18.0419 14.1088C17.9198 13.847 17.7365 13.6184 17.5075 13.4422C15.9016 12.0966 14.319 10.7205 12.7272 9.3596C12.0152 8.74935 11.2016 8.77681 10.693 9.41249C10.4693 9.69016 10.4092 10.0105 10.4092 10.3604C10.414 12.7953 10.414 15.2303 10.4092 17.6652C10.4092 25.092 10.4059 32.5188 10.3991 39.9457C10.3991 40.7298 10.6534 41.274 11.3816 41.573L17.2248 41.574Z" fill="#59443E"/>
<path d="M27.6192 41.574C28.3474 41.2689 28.6058 40.7298 28.6027 39.9467C28.5838 34.5778 28.5838 29.2082 28.6027 23.8379C28.6134 23.5559 28.5566 23.2754 28.437 23.0198C28.3174 22.7642 28.1385 22.5408 27.9152 22.3682C26.3 21.0114 24.7042 19.6312 23.1003 18.2622C22.2561 17.5421 21.1922 17.7699 20.8627 18.7331C20.8137 18.9018 20.7931 19.0774 20.8016 19.2529C20.8016 26.2322 20.8016 33.2115 20.8016 40.1908C20.8016 40.9027 21.183 41.3096 21.7791 41.575L27.6192 41.574Z" fill="#59443E"/>
<path d="M38.0139 41.574C38.7432 41.2689 39.0076 40.7298 38.9985 39.9466C38.9679 37.5127 38.9801 35.0778 38.9985 32.6439C39.0091 32.4079 38.9646 32.1726 38.8683 31.9569C38.7721 31.7411 38.6269 31.5508 38.4441 31.401C36.7666 29.9716 35.0908 28.5406 33.4166 27.1079C32.9813 26.7366 32.4901 26.5993 31.9541 26.8617C31.418 27.1241 31.1953 27.5839 31.1963 28.1839C31.2024 32.1048 31.2126 36.0267 31.1882 39.9487C31.1882 40.7349 31.4465 41.2709 32.1727 41.576L38.0139 41.574Z" fill="#59443E"/>
</svg>
