<svg width="40" height="48" viewBox="0 0 40 48" fill="none" xmlns="http://www.w3.org/2000/svg">
<path d="M1.55136 0H38.4499C39.6197 0.440385 40.0025 1.30739 40 2.52471C39.9783 14.8071 39.9742 27.0887 39.9875 39.3694C39.9875 39.975 39.9875 39.975 39.382 39.975H0.664341C0.0150235 39.975 0.0137785 39.975 0.0137785 39.3219C0.0137785 27.0562 0.00917776 14.79 3.06461e-06 2.52346C-0.00124803 1.30364 0.380339 0.440385 1.55136 0ZM8.01202 23.996C8.01952 30.553 13.4042 35.9489 19.9512 35.9627C23.139 35.9624 26.1966 34.6978 28.4533 32.4462C30.71 30.1947 31.9816 27.14 31.9892 23.9522C31.9892 17.389 26.5733 11.9817 20.0013 11.9892C13.393 11.9917 8.00326 17.3902 8.01202 23.996ZM29.9737 7.97322C31.176 7.97322 32.3771 7.96446 33.5781 7.97948C33.8809 7.97948 33.9797 7.89941 33.9747 7.58914C33.9572 6.52821 33.9572 5.46728 33.9747 4.40635C33.9747 4.10859 33.9034 4.00475 33.5881 4.00726C31.1844 4.01977 28.7814 4.01977 26.3793 4.00726C26.0753 4.00726 25.9815 4.08983 25.9865 4.3976C26.0052 5.45852 26.009 6.52446 25.9865 7.58038C25.979 7.93194 26.1116 7.98323 26.4194 7.97948C27.6029 7.96446 28.7889 7.97322 29.9737 7.97322ZM15.989 7.97322C16.2486 7.97322 16.5056 7.92209 16.7455 7.82275C16.9853 7.72341 17.2032 7.57781 17.3867 7.39425C17.5703 7.2107 17.7159 6.99278 17.8153 6.75296C17.9146 6.51313 17.9657 6.25608 17.9657 5.9965C17.9657 5.73691 17.9146 5.47986 17.8153 5.24003C17.7159 5.00021 17.5703 4.78229 17.3867 4.59874C17.2032 4.41518 16.9853 4.26958 16.7455 4.17024C16.5056 4.0709 16.2486 4.01977 15.989 4.01977C15.7294 4.01977 15.4724 4.0709 15.2325 4.17024C14.9927 4.26958 14.7748 4.41518 14.5912 4.59874C14.4077 4.78229 14.2621 5.00021 14.1627 5.24003C14.0634 5.47986 14.0123 5.73691 14.0123 5.9965C14.0123 6.25608 14.0634 6.51313 14.1627 6.75296C14.2621 6.99278 14.4077 7.2107 14.5912 7.39425C14.7748 7.57781 14.9927 7.72341 15.2325 7.82275C15.4724 7.92209 15.7294 7.97322 15.989 7.97322V7.97322ZM8.03579 4.01977C7.6447 4.01412 7.26071 4.12456 6.93237 4.33711C6.60402 4.54966 6.34607 4.85479 6.19112 5.21392C6.03616 5.57305 5.99115 5.97006 6.06179 6.35477C6.13243 6.73947 6.31554 7.09459 6.58798 7.37525C6.86041 7.6559 7.20993 7.84948 7.59237 7.93152C7.9748 8.01356 8.37298 7.98037 8.73656 7.83616C9.10013 7.69194 9.41279 7.44316 9.635 7.12128C9.85722 6.7994 9.97902 6.41886 9.98499 6.02777C9.992 5.76694 9.94682 5.50733 9.85213 5.26419C9.75743 5.02105 9.61513 4.79927 9.43356 4.61188C9.25199 4.42448 9.03482 4.27525 8.79479 4.17292C8.55476 4.0706 8.29672 4.01725 8.03579 4.01601V4.01977Z" fill="#59443E"/>
<path d="M20 41.9567C26.4923 41.9567 32.9838 41.9537 39.4745 41.9479C39.8774 41.9479 40.01 42.033 39.9975 42.4559C39.9662 43.5468 39.9975 44.6403 39.985 45.7325C39.975 47.1725 39.188 47.9469 37.743 47.9469H2.25822C0.811958 47.9469 0.0250142 47.1737 0.0162566 45.7337C0.00875 44.6415 0.035026 43.5481 0.00374868 42.4571C-0.00876226 42.0367 0.120106 41.9467 0.52546 41.9467C7.01614 41.9583 13.5077 41.9617 20 41.9567Z" fill="#59443E"/>
<path d="M11.9994 24.0197C11.9941 22.9351 12.2096 21.8608 12.6329 20.8621C13.0561 19.8635 13.6782 18.9615 14.4612 18.211C15.2443 17.4605 16.1719 16.8772 17.1876 16.4967C18.2033 16.1162 19.2858 15.9464 20.3692 15.9977C22.7075 16.1153 24.6229 17.0962 26.148 18.8565C26.3544 19.0942 26.3619 19.213 26.1067 19.437C23.2943 21.8979 23.2967 26.0615 26.1155 28.5162C26.3894 28.7551 26.3344 28.8777 26.1392 29.0954C23.9373 31.5676 21.1899 32.5159 18.0071 31.6927C14.7981 30.8645 12.8564 28.6901 12.1432 25.4372C12.0319 24.958 12.0381 24.4739 11.9994 24.0197Z" fill="#59443E"/>
</svg>
