<svg width="49" height="51" viewBox="0 0 49 51" fill="none" xmlns="http://www.w3.org/2000/svg">
<path d="M15.734 51C15.7562 48.815 15.4802 46.6086 15.9462 44.4502C16.4383 42.1653 17.7063 40.3835 19.5796 39.0421C19.8153 38.8731 19.9702 38.8784 20.2097 39.0541C22.8277 40.981 26.1747 40.9823 28.8018 39.0541C29.0349 38.8838 29.1924 38.8598 29.4332 39.0355C31.7947 40.7654 33.1499 43.0849 33.2762 46.0683C33.3452 47.7078 33.2762 49.3539 33.2762 50.992L15.734 51Z" fill="#59443E"/>
<path d="M36.2379 12.0098C36.2331 15.193 34.9925 18.244 32.7886 20.4928C30.5847 22.7416 27.5977 24.0044 24.4837 24.0036C18.0123 23.9917 12.7373 18.5703 12.7672 11.9672C12.7776 8.78427 14.024 5.73576 16.2326 3.49191C18.4411 1.24806 21.431 -0.00744855 24.5449 0.00138912C27.6512 0.0158174 30.6254 1.28741 32.8168 3.53791C35.0082 5.78841 36.2383 8.83455 36.2379 12.0098V12.0098ZM25.9691 9.66775C25.9691 8.91323 25.9561 8.39826 25.9691 7.88593C25.9795 7.59051 25.9001 7.47474 25.5916 7.48671C24.8612 7.50667 24.1309 7.508 23.4006 7.48671C23.0868 7.4774 23.0269 7.60515 23.0282 7.89259C23.0404 9.41849 23.0404 10.9444 23.0282 12.4703C23.0187 12.5749 23.0393 12.6801 23.0874 12.773C23.1355 12.8659 23.209 12.9424 23.299 12.9932C24.8013 14.0046 26.298 15.0248 27.789 16.0539C28.0116 16.2083 28.1262 16.2123 28.2772 15.9674C28.6756 15.3233 29.0857 14.6846 29.5192 14.0658C29.704 13.7997 29.6416 13.6852 29.4007 13.5335C28.7303 13.097 28.0989 12.5834 27.4076 12.2028C26.3102 11.5853 25.5369 10.8508 25.9691 9.66642V9.66775Z" fill="#59443E"/>
<path d="M42.1157 48.0045C40.3296 48.0045 38.5448 47.9899 36.7586 48.0152C36.3264 48.0152 36.2054 47.9061 36.2262 47.4616C36.3278 45.2739 35.9867 43.1674 35.035 41.1846C34.4655 39.9905 33.6932 38.9092 32.7542 37.9908C32.5056 37.7473 32.5056 37.6089 32.7438 37.3667C33.2229 36.8705 33.7459 36.4205 34.306 36.0227C34.4883 35.8896 34.6119 35.867 34.8163 36.0081C37.6869 38.0042 40.7019 38.0175 43.523 36.0293C43.769 35.8564 43.9135 35.9109 44.1153 36.056C46.5211 37.8005 47.8346 40.1746 47.9713 43.1847C48.0377 44.6591 47.9713 46.1375 47.9974 47.6147C47.9974 47.9633 47.8672 48.0139 47.573 48.0139C45.7517 47.9992 43.9344 48.0045 42.1157 48.0045Z" fill="#59443E"/>
<path d="M6.90248 48.0045C5.07992 48.0045 3.26167 48.0045 1.44779 48.0045C1.25251 48.0045 1.0104 48.0857 1.02082 47.7184C1.06768 45.9286 0.89063 44.1254 1.11585 42.3476C1.44521 39.6861 2.75095 37.6049 4.89116 36.0559C5.15152 35.8696 5.31424 35.8923 5.56419 36.0786C6.79968 36.9975 8.28749 37.4942 9.81542 37.4978C11.3434 37.5013 12.8333 37.0116 14.0729 36.0985C14.358 35.8869 14.5507 35.8803 14.8267 36.0919C15.3633 36.4942 15.8651 36.943 16.3264 37.4332C16.4865 37.6089 16.5295 37.714 16.3329 37.9096C13.6967 40.5245 12.6318 43.7582 12.7815 47.4549C12.7985 47.8807 12.7112 48.0258 12.2608 48.0191C10.4747 47.9872 8.68859 48.0045 6.90248 48.0045Z" fill="#59443E"/>
<path d="M39.193 34.4883C38.6153 34.4915 38.0426 34.3781 37.5077 34.1548C36.9729 33.9314 36.4864 33.6024 36.0761 33.1865C35.6658 32.7707 35.3398 32.2763 35.1167 31.7315C34.8936 31.1868 34.7778 30.6024 34.7759 30.0118C34.7765 28.8195 35.2387 27.6759 36.0614 26.8307C36.8841 25.9854 38.0005 25.5073 39.1669 25.5006C40.3341 25.5006 41.4541 25.9718 42.283 26.8117C43.112 27.6516 43.5829 28.7921 43.5932 29.9852C43.5937 30.5762 43.4803 31.1616 43.2594 31.7078C43.0385 32.2541 42.7145 32.7505 42.3059 33.1687C41.8972 33.5869 41.412 33.9187 40.8779 34.1451C40.3438 34.3715 39.7712 34.4881 39.193 34.4883V34.4883Z" fill="#59443E"/>
<path d="M9.82769 34.4883C8.66135 34.4887 7.54254 34.016 6.71683 33.1739C5.89113 32.3319 5.426 31.1894 5.42358 29.9971C5.43078 28.8052 5.89779 27.6644 6.72316 26.8225C7.54852 25.9805 8.66557 25.5055 9.8316 25.5006C10.9981 25.5041 12.1158 25.9795 12.9406 26.8228C13.7653 27.666 14.23 28.8087 14.2331 30.0011C14.2331 30.5917 14.119 31.1766 13.8974 31.722C13.6759 32.2675 13.3511 32.7628 12.9418 33.1797C12.5325 33.5966 12.0468 33.9268 11.5124 34.1514C10.978 34.3759 10.4055 34.4904 9.82769 34.4883V34.4883Z" fill="#59443E"/>
<path d="M24.5227 37.4919C23.9453 37.4954 23.3729 37.3822 22.8384 37.159C22.3038 36.9357 21.8177 36.6068 21.4078 36.1909C20.998 35.7751 20.6726 35.2806 20.4502 34.7359C20.2279 34.1912 20.113 33.6069 20.1121 33.0167C20.1087 32.4259 20.2192 31.8402 20.4372 31.2931C20.6553 30.7459 20.9766 30.248 21.3829 29.8279C21.7893 29.4077 22.2726 29.0735 22.8053 28.8443C23.338 28.6152 23.9096 28.4955 24.4876 28.4922C25.6539 28.4894 26.7736 28.96 27.6007 29.8006C28.4277 30.6413 28.8944 31.7832 28.8982 32.9754C28.903 33.5662 28.7934 34.1521 28.5758 34.6994C28.3581 35.2467 28.0367 35.7446 27.63 36.1644C27.2233 36.5842 26.7394 36.9176 26.2061 37.1455C25.6728 37.3733 25.1007 37.491 24.5227 37.4919V37.4919Z" fill="#59443E"/>
</svg>
