<svg width="47" height="47" viewBox="0 0 47 47" fill="none" xmlns="http://www.w3.org/2000/svg">
<path d="M0.0158387 3.36541C0.211482 2.59863 0.480021 1.87196 1.03414 1.2741C1.37916 0.894901 1.79579 0.587658 2.25999 0.370075C2.7242 0.152492 3.22683 0.0288224 3.739 0.0062349C4.25117 -0.0163526 4.76276 0.0625972 5.24432 0.238471C5.72588 0.414344 6.1679 0.683711 6.54496 1.03106C6.9299 1.37464 7.29504 1.73978 7.63862 2.12472C7.8876 2.40731 8.23561 2.58347 8.61076 2.61684C13.6068 3.34077 18.649 3.69859 23.6971 3.68742C28.5026 3.66797 33.3008 3.31306 38.0569 2.62533C38.3723 2.59211 38.6643 2.44374 38.8771 2.20856C39.2562 1.79662 39.656 1.40044 40.0692 1.02252C40.809 0.342994 41.7834 -0.0231175 42.7876 0.00113212C43.7918 0.0253817 44.7475 0.43814 45.4536 1.15258C46.154 1.85911 46.5569 2.80719 46.5795 3.80175C46.6021 4.79632 46.2427 5.76173 45.5751 6.49934C45.371 6.74422 45.1457 6.97068 44.9019 7.17618C44.3344 7.61485 44.1036 8.18356 44.0379 8.88715C43.9164 10.1534 43.7244 11.4123 43.592 12.6773C43.5616 12.9713 43.4231 13.0151 43.1922 13.0418C41.4909 13.2338 39.7897 13.4562 38.0885 13.6239C33.3331 14.093 28.5667 14.3299 23.7895 14.3348C19.6344 14.3445 15.4858 14.1825 11.3437 13.8487C8.74564 13.6361 6.15611 13.3626 3.56657 13.0406C3.20202 12.9956 3.13397 12.8352 3.10602 12.529C2.97599 11.1267 2.78402 9.73412 2.57865 8.33789C2.55761 8.1277 2.45722 7.93342 2.29794 7.79468C2.13997 7.65372 2.00387 7.48849 1.8459 7.34753C0.958821 6.55524 0.244283 5.65597 0.00732422 4.45295L0.0158387 3.36541Z" fill="#59443E"/>
<path d="M0.015783 42.1148C0.258818 40.7259 1.20302 39.7987 2.18123 38.9055C2.45741 38.6495 2.62739 38.299 2.65757 37.9236C2.9006 36.1981 3.10354 34.4677 3.26516 32.7336C3.29189 32.4469 3.36965 32.4007 3.65157 32.4371C10.2808 33.2906 16.9584 33.7139 23.6424 33.7046C29.5081 33.7008 35.3687 33.3559 41.1944 32.6717C41.802 32.6 42.401 32.5502 42.9977 32.4542C43.3367 32.3971 43.4534 32.4833 43.4777 32.8187C43.5785 34.2089 43.756 35.5918 43.9431 36.9722C44.0075 37.4522 44.0816 37.9309 44.1375 38.4121C44.1662 38.5924 44.2595 38.7561 44.4 38.8727C44.7463 39.2129 45.0939 39.5508 45.4268 39.9032C46.484 41.015 46.8546 42.3226 46.399 43.7917C45.9433 45.2609 44.9286 46.1528 43.4242 46.4846C43.3527 46.5053 43.2828 46.5313 43.2152 46.5624H42.1216C41.311 46.3461 40.5418 46.0471 39.9342 45.4335C39.5831 45.0774 39.2222 44.7311 38.8758 44.3714C38.7431 44.2256 38.5624 44.1325 38.3667 44.1089C37.2402 43.9667 36.1174 43.7954 34.9897 43.6653C30.5035 43.1507 25.9882 42.9331 21.4733 43.014C17.036 43.1034 12.6087 43.4739 8.21821 44.1235C7.96432 44.166 7.73478 44.3 7.57294 44.5002C6.70774 45.448 5.78787 46.3132 4.45968 46.566H3.36603C3.25058 46.5319 3.13756 46.4967 3.02212 46.4663C1.61374 46.0933 0.661028 45.2281 0.185895 43.8476C0.112985 43.6362 0.0644042 43.4163 0 43.2L0.015783 42.1148Z" fill="#59443E"/>
<path d="M23.8442 30.9741C18.7319 30.9656 14.0243 30.7761 9.33132 30.3082C7.53773 30.1296 5.74778 29.9194 3.95418 29.7371C3.62365 29.7031 3.50335 29.6095 3.52644 29.2365C3.66861 26.845 3.73666 24.4511 3.68198 22.056C3.67226 21.6708 3.75613 21.5772 4.15592 21.627C7.28256 22.0244 10.4189 22.3294 13.5638 22.5238C18.0733 22.8021 22.5877 22.9054 27.1057 22.79C30.9254 22.692 34.7362 22.4603 38.538 22.0949C39.9246 21.96 41.3086 21.7984 42.6915 21.6246C42.9965 21.5869 43.0439 21.6793 43.0415 21.9515C43.0087 24.4073 43.0342 26.862 43.2128 29.313C43.2347 29.6144 43.1277 29.7019 42.8483 29.7359C38.3959 30.2851 33.9313 30.6764 29.4461 30.8526C27.4484 30.9304 25.4482 30.9353 23.8442 30.9741Z" fill="#59443E"/>
<path d="M23.4006 20.1044C18.3819 20.1044 13.3754 19.8492 8.38108 19.3595C6.88884 19.2137 5.40268 19.0071 3.91288 18.8467C3.65648 18.82 3.58478 18.7252 3.57506 18.4822C3.54468 17.7093 3.51187 16.9377 3.45354 16.1673C3.42681 15.8428 3.53858 15.7845 3.83023 15.8197C5.25927 15.989 6.68913 16.151 8.1198 16.3058C10.8321 16.5913 13.5516 16.7845 16.2761 16.9133C20.1367 17.0895 23.9997 17.1321 27.8639 17.0118C31.7719 16.8903 35.6726 16.6472 39.5588 16.2219C40.6731 16.1004 41.7862 15.9789 42.8981 15.8367C43.2128 15.7966 43.3294 15.8562 43.2918 16.2013C43.2054 16.893 43.162 17.5894 43.1618 18.2865C43.1715 18.7532 42.9868 18.8588 42.5785 18.9062C40.2174 19.1809 37.8539 19.4434 35.4831 19.6281C31.4597 19.9404 27.4338 20.1093 23.4006 20.1044Z" fill="#59443E"/>
</svg>
