<svg width="55" height="47" viewBox="0 0 55 47" fill="none" xmlns="http://www.w3.org/2000/svg">
<path d="M0 41.8791V20.3325C18.132 20.3325 36.264 20.3281 54.396 20.3195C54.7985 20.3195 54.8973 20.4227 54.8973 20.8222C54.8839 27.5925 54.881 34.3627 54.8887 41.133C54.8911 41.58 54.8348 42.0254 54.7211 42.4577C54.1368 44.6403 52.2621 46.0553 49.9177 46.0553C34.9278 46.0553 19.938 46.0553 4.94809 46.0553C4.8593 46.0553 4.76906 46.0553 4.68026 46.0553C3.69166 46.0237 2.7364 45.6903 1.94278 45.1C1.14916 44.5096 0.555176 43.6905 0.240592 42.7528C0.151798 42.4649 0.0816327 42.1699 0 41.8791ZM14.618 23.9772C12.603 23.9685 10.6666 24.7586 9.23291 26.1746C7.79923 27.5905 6.98511 29.5169 6.96884 31.5318C6.96375 32.5343 7.15638 33.5279 7.53565 34.4559C7.91493 35.3838 8.47342 36.2279 9.1792 36.9398C9.88499 37.6517 10.7242 38.2174 11.6488 38.6047C12.5735 38.992 13.5654 39.1932 14.5678 39.1967C16.5835 39.1952 18.5167 38.3961 19.9451 36.9739C21.3735 35.5517 22.181 33.622 22.1912 31.6063C22.1946 29.5914 21.3997 27.6572 19.9803 26.2271C18.5609 24.7971 16.6328 23.9876 14.618 23.9758V23.9772ZM37.7286 28.9053C40.5313 28.9053 43.3326 28.9053 46.1353 28.9053C46.8844 28.9053 47.4615 28.6188 47.7766 27.9343C48.2779 26.8358 47.4615 25.6915 46.174 25.6901C41.8566 25.6834 37.5377 25.6834 33.2173 25.6901C31.8783 25.6901 30.5406 25.6901 29.2073 25.6901C28.8827 25.6752 28.5616 25.7624 28.289 25.9394C28.0165 26.1164 27.8063 26.3743 27.6878 26.6769C27.2166 27.7624 28.0243 28.8967 29.2746 28.8996C32.0888 28.911 34.9087 28.9038 37.7286 28.9038V28.9053ZM37.7544 34.2659C34.935 34.2659 32.1151 34.2659 29.2947 34.2659C28.265 34.2659 27.5403 34.9547 27.5532 35.8913C27.5661 36.8022 28.2879 37.4667 29.2832 37.4781C30.4075 37.4781 31.5317 37.4781 32.6559 37.4781C37.1357 37.4781 41.6155 37.4781 46.0953 37.4781C46.84 37.4781 47.4272 37.2304 47.758 36.5415C48.2836 35.4488 47.4887 34.2673 46.2141 34.263C43.3942 34.2573 40.5743 34.2644 37.7544 34.2644V34.2659Z" fill="#59443E"/>
<path d="M0 11.0062C0.0358038 10.8888 0.0773334 10.7728 0.104544 10.6553C0.638737 8.3467 2.50055 6.83295 4.88509 6.82579C9.93915 6.81147 14.9946 6.82579 20.0487 6.82579H36.1547L36.1705 6.73124L33.5926 5.93496C30.628 5.02124 27.6635 4.10802 24.6989 3.19527C23.6033 2.85871 23.0634 2.05673 23.3312 1.14445C23.609 0.194932 24.517 -0.22185 25.6226 0.116138C32.2349 2.1455 38.8557 4.15194 45.4508 6.23572C46.9145 6.68122 48.4396 6.89101 49.9692 6.85726C51.9828 6.84723 53.4852 7.78104 54.4089 9.58555C54.7259 10.2093 54.8899 10.8995 54.8872 11.5992C54.8944 13.2963 54.8873 14.9933 54.9001 16.689C54.9001 17.0613 54.7698 17.1186 54.439 17.1186C41.8475 17.111 29.2555 17.111 16.6631 17.1186C16.2936 17.1186 16.1561 17.0313 16.1848 16.6475C16.2177 16.2035 16.2005 15.7553 16.1848 15.3084C16.1618 14.3875 15.4816 13.6958 14.6094 13.6843C14.1848 13.6835 13.7769 13.8493 13.4732 14.146C13.1695 14.4427 12.9943 14.8467 12.9853 15.2712C12.9574 15.7171 12.9574 16.1643 12.9853 16.6102C13.014 17.0026 12.9037 17.1258 12.4912 17.1215C10.4375 17.0986 8.38238 17.11 6.33297 17.1115H0.0100349L0 11.0062Z" fill="#59443E"/>
<path d="M10.1855 31.5848C10.1867 30.4212 10.649 29.3055 11.4713 28.4822C12.2935 27.6589 13.4086 27.1951 14.5722 27.1924C15.7369 27.1924 16.854 27.6547 17.6781 28.4777C18.5022 29.3008 18.966 30.4173 18.9675 31.582C18.9652 32.7466 18.5019 33.863 17.6788 34.6869C16.8556 35.5108 15.7397 35.9753 14.5751 35.9787C13.4118 35.9734 12.2977 35.5086 11.4755 34.6856C10.6534 33.8627 10.1897 32.7481 10.1855 31.5848V31.5848Z" fill="#59443E"/>
</svg>
