<svg width="59" height="43" viewBox="0 0 59 43" fill="none" xmlns="http://www.w3.org/2000/svg">
<path d="M0 22.524C0.153898 21.344 0.284737 20.164 0.449409 18.9872C0.691029 17.2497 1.13733 15.5586 1.63288 13.8782C1.76523 13.4304 1.94069 13.4751 2.26542 13.6697C4.55682 15.0486 7.08803 15.9788 9.72486 16.4111C13.3507 16.9887 16.8781 16.5655 20.31 15.3192C20.8656 15.1169 21.1826 15.1864 21.5981 15.5987C24.159 18.1501 26.7506 20.6706 29.3377 23.1958C31.6815 25.4846 34.4594 25.7178 37.1711 23.8707C38.3453 23.0707 39.5365 22.2954 40.7107 21.4846C41.0185 21.2683 41.2556 21.239 41.5895 21.4305C44.1935 22.9286 45.7355 25.1371 46.1033 28.1457C46.1332 28.3166 46.1502 28.4896 46.1541 28.6631C46.1434 28.9843 46.2742 29.0971 46.5989 29.0893C47.4623 29.0708 48.3272 29.0693 49.1905 29.0893C49.5491 29.0986 49.6522 28.9627 49.6522 28.626C49.6692 27.5449 49.96 26.5395 50.3663 25.5526C50.5017 25.2267 50.6387 25.1232 51.0066 25.2854C53.1303 26.2213 55.2613 27.1392 57.3995 28.0391C57.517 28.0731 57.6184 28.1482 57.6856 28.2507C57.7528 28.3532 57.7812 28.4765 57.7658 28.5982C57.755 30.3712 57.7504 32.1504 57.7658 33.9157C57.7658 34.2709 57.6503 34.4099 57.3041 34.3697C57.1697 34.3628 57.0352 34.3628 56.9009 34.3697C38.6619 34.3697 20.4244 34.3754 2.18847 34.3867C1.56056 34.3867 1.342 34.189 1.19733 33.6145C0.642953 31.4717 0.282395 29.2832 0.120045 27.0754C0.107733 26.9055 0.136985 26.7248 0.0154049 26.5765L0 22.524Z" fill="#59443E"/>
<path d="M0 37.7828C0.247776 37.7983 0.495563 37.8276 0.741801 37.8276C7.65081 37.8276 14.5583 37.8246 21.4642 37.8184C21.9798 37.8184 22.1491 37.9373 22.1321 38.4794C22.0906 39.8246 22.1044 41.1744 22.1321 42.5212C22.1321 42.9057 22.0183 42.9999 21.6474 42.9999C14.4326 42.9876 7.21835 42.983 0.00462146 42.986L0 37.7828Z" fill="#59443E"/>
<path d="M28.1343 37.8339H28.7976C38.6204 37.8339 48.4437 37.8298 58.2676 37.8215C58.8293 37.8215 59.0232 37.9312 58.9986 38.5366C58.9447 39.8633 58.9678 41.1931 58.9986 42.5213C58.9986 42.9089 58.8801 42.9969 58.5123 42.9969C50.2018 42.9866 41.8943 42.9836 33.59 42.9877C33.478 42.9985 33.3651 42.985 33.2588 42.9479C33.1525 42.9108 33.0555 42.8512 32.9744 42.773C31.42 41.2008 29.8605 39.6347 28.2959 38.0748C28.2363 37.9986 28.1822 37.918 28.1343 37.8339V37.8339Z" fill="#59443E"/>
<path d="M33.6547 21.608C33.3458 21.617 33.0384 21.5623 32.7515 21.4472C32.4645 21.3322 32.2041 21.1594 31.9864 20.9393C29.5538 18.565 27.1217 16.1902 24.6901 13.8149C24.4592 13.5894 24.4008 13.472 24.7378 13.2851C26.2939 12.4119 27.7708 11.4037 29.1516 10.272C29.4163 10.0557 29.5625 10.0635 29.8088 10.3059C32.5892 13.0365 35.3793 15.7588 38.1793 18.4729C38.4301 18.7169 38.4871 18.8374 38.147 19.0536C37.0697 19.7501 36.0093 20.4791 34.9397 21.1911C34.567 21.4647 34.1165 21.6108 33.6547 21.608Z" fill="#59443E"/>
<path d="M52.0193 18.6861C50.3415 19.7268 48.9258 21.1423 47.8825 22.8221C46.8536 21.1394 45.4444 19.7236 43.7688 18.6892C45.4438 17.6501 46.8527 16.2314 47.8825 14.547C48.9206 16.2318 50.3373 17.6493 52.0193 18.6861V18.6861Z" fill="#59443E"/>
<path d="M20.3333 8.27197C19.5213 6.42928 18.0564 4.9548 16.2227 4.13444C18.0555 3.31489 19.5199 1.84151 20.3317 0C21.1454 1.84203 22.6136 3.31382 24.4501 4.12826C22.5648 5.02094 21.209 6.35379 20.3333 8.27197Z" fill="#59443E"/>
</svg>
