<svg width="52" height="54" viewBox="0 0 52 54" fill="none" xmlns="http://www.w3.org/2000/svg">
<path d="M51.3758 24.0835C51.5079 25.0383 51.0964 25.6634 50.2813 26.1559C48.4874 27.2394 46.7224 28.3736 44.9609 29.5135C44.6043 29.7385 44.433 29.7479 44.1903 29.3584C42.3546 26.4115 40.5019 23.4758 38.6322 20.5513C38.4036 20.1891 38.4065 20.0148 38.7929 19.7772C40.5641 18.6876 42.3308 17.5883 44.0639 16.4507C44.8615 15.9254 45.6253 15.779 46.4551 16.3012L51.3758 24.0835Z" fill="#59443E"/>
<path d="M24.4657 42.4323L7.81599 52.9397C6.61151 53.6999 5.85391 53.5256 5.08669 52.3099C3.72166 50.1469 2.35663 47.984 0.991592 45.821C0.329127 44.7713 0.514016 43.9411 1.57648 43.269C5.09797 41.0466 8.6187 38.8247 12.1387 36.6033C19.8217 31.7547 27.5029 26.9024 35.1823 22.0466C35.6007 21.7826 35.7962 21.7768 36.0689 22.2288C37.8824 25.1521 39.7184 28.0613 41.5767 30.9563C41.8273 31.3533 41.7876 31.5116 41.3939 31.76C35.7428 35.3075 30.1001 38.865 24.4657 42.4323Z" fill="#59443E"/>
<path d="M33.4715 12.7138C34.0097 13.551 34.2464 14.5466 34.1426 15.5364C34.0919 16.1518 34.0708 16.7296 34.3719 17.3284C34.7615 18.1049 34.401 18.9723 33.6598 19.3459C32.9186 19.7196 32.0682 19.4628 31.5963 18.7225C31.0796 17.9038 30.8949 17.0073 30.9427 16.0519C30.9551 15.823 30.9777 15.5954 30.9908 15.3677C31.0406 14.48 30.8024 14.0753 29.9563 13.7608C29.1763 13.469 28.4193 13.1392 27.8228 12.537C27.341 12.0688 26.972 11.4971 26.7438 10.8652C26.5156 10.2332 26.4342 9.55762 26.5058 8.88956C26.5627 8.23424 26.5652 7.61949 26.2315 6.99891C25.8979 6.37833 26.2506 5.49095 26.8817 5.11933C27.1953 4.93223 27.5652 4.86231 27.9255 4.92198C28.2858 4.98166 28.6134 5.16707 28.85 5.4453C29.5321 6.29757 29.7555 7.29505 29.7044 8.367C29.6888 8.66536 29.653 8.96395 29.6422 9.26243C29.6221 9.54483 29.6941 9.82615 29.8474 10.0642C30.0007 10.3022 30.2271 10.484 30.4925 10.5825C31.1734 10.8663 31.8767 11.0936 32.4655 11.5719C32.857 11.8992 33.1962 12.2843 33.4715 12.7138V12.7138Z" fill="#59443E"/>
<path d="M34.4473 2.55586C34.9113 3.36072 35.0525 4.23292 34.9865 5.1496C34.9569 5.55247 34.8583 5.96285 34.9658 6.35922C35.1363 6.96983 35.6354 7.22401 36.19 7.41192C37.1261 7.7275 37.9323 8.22713 38.5348 9.04025C39.2161 9.93067 39.5378 11.0445 39.4364 12.1611C39.3863 12.7949 39.3601 13.3869 39.6736 14.003C40.0621 14.7677 39.6809 15.6496 38.938 16.018C38.5855 16.1901 38.1815 16.2241 37.8052 16.1134C37.4289 16.0026 37.1076 15.7552 36.9044 15.4196C36.3961 14.6096 36.1625 13.6572 36.2381 12.7039C36.2536 12.4228 36.2846 12.1414 36.2971 11.8606C36.3239 11.1898 36.0606 10.7554 35.4296 10.5059C34.5925 10.1733 33.7531 9.85465 33.1033 9.19524C32.6368 8.73667 32.2775 8.18063 32.0509 7.56695C31.8244 6.95328 31.7363 6.29711 31.793 5.64543C31.8371 4.95741 31.8698 4.31109 31.5214 3.64967C31.1608 2.96145 31.6233 2.00467 32.3332 1.70567C33.1558 1.3543 33.983 1.68844 34.4473 2.55586Z" fill="#59443E"/>
</svg>
