<svg width="51" height="47" viewBox="0 0 51 47" fill="none" xmlns="http://www.w3.org/2000/svg">
<path d="M0 42.9696V14.4517C0.20509 13.6916 0.420223 12.9387 0.917889 12.298C1.95768 10.9597 3.33737 10.3858 5.02542 10.39C11.2498 10.4057 17.4757 10.39 23.7001 10.39H24.2379C24.2092 10.1556 24.0472 10.0775 23.9367 9.96385C22.6077 8.66065 21.2739 7.35698 19.9353 6.05283C18.4825 4.63218 17.0325 3.21154 15.5682 1.79942C15.3301 1.5707 15.3287 1.43574 15.5682 1.22122C15.9199 0.919756 16.2491 0.593583 16.5535 0.245238C16.8332 -0.0843509 17.0081 -0.0758259 17.3236 0.235295C20.2035 3.07658 23.1078 5.8994 25.9876 8.74352C26.3003 9.0518 26.4523 9.04328 26.7607 8.74352C29.652 5.90934 32.5663 3.10073 35.4562 0.266549C35.7617 -0.0332065 35.9209 -0.0175809 36.1733 0.285016C36.4381 0.601574 36.7324 0.892677 37.0524 1.15445C37.4124 1.43858 37.4282 1.62752 37.0711 1.97274C34.3246 4.62366 31.6025 7.29873 28.8761 9.96954C28.7528 10.0903 28.5893 10.1869 28.5075 10.4341H45.8512C46.3486 10.4206 46.8458 10.4683 47.3313 10.5762C49.6375 11.16 51 12.9159 51 15.2785C51 24.2228 51 33.1677 51 42.113C51 42.2551 51 42.4099 50.9914 42.5562C50.858 44.2525 50.0592 45.5396 48.5705 46.392C47.7559 46.8636 46.8623 46.9986 45.9416 47C40.4142 47 34.8868 47 29.3594 47C21.2591 47 13.1587 47 5.05841 47C3.38614 47 1.9835 46.446 0.936534 45.1105C0.437434 44.4741 0.2223 43.7212 0 42.9696ZM19.059 17.7902C16.1199 17.7902 13.1817 17.7902 10.2445 17.7902C7.90815 17.7902 6.46536 19.2279 6.46392 21.5449C6.46392 26.3751 6.46392 31.2091 6.46392 36.0468C6.46392 38.3852 7.91676 39.8187 10.2832 39.8201H27.8105C30.1927 39.8201 31.6513 38.3781 31.6527 36.0085C31.6584 31.2086 31.6584 26.4078 31.6527 21.606C31.6626 21.1951 31.6143 20.7848 31.5093 20.3871C31.0446 18.7633 29.761 17.7987 28.017 17.793C25.0339 17.7831 22.0465 17.7902 19.059 17.7902ZM44.5347 34.3662C44.5348 33.835 44.429 33.3089 44.2233 32.8183C44.0176 32.3277 43.716 31.8821 43.3359 31.5074C42.9558 31.1326 42.5047 30.8359 42.0084 30.6343C41.5122 30.4328 40.9806 30.3304 40.4443 30.333C39.3622 30.3323 38.3239 30.7563 37.5567 31.5122C36.7896 32.2681 36.3561 33.2944 36.3511 34.3662C36.3519 34.9011 36.459 35.4306 36.6663 35.9245C36.8736 36.4183 37.1772 36.8669 37.5595 37.2446C37.9419 37.6223 38.3956 37.9217 38.8947 38.1257C39.3939 38.3297 39.9287 38.4343 40.4687 38.4335C41.5519 38.4268 42.5882 37.9948 43.3504 37.2324C44.1126 36.4699 44.5385 35.4392 44.5347 34.3662ZM40.4443 20.8488C41.8785 20.8488 43.2998 20.8417 44.7268 20.8488C45.0137 20.8488 45.1456 20.7849 45.1313 20.4681C45.1083 19.9424 45.1126 19.4154 45.1313 18.8897C45.1413 18.6141 45.0538 18.5175 44.767 18.519C41.8785 18.5275 38.9905 18.5275 36.103 18.519C35.8018 18.519 35.743 18.6397 35.7502 18.8997C35.766 19.3927 35.7789 19.8941 35.7502 20.38C35.7273 20.7451 35.8348 20.8588 36.2149 20.8517C37.6276 20.8346 39.0388 20.8488 40.4443 20.8488ZM40.4874 24.3294C39.0431 24.3294 37.5989 24.3294 36.1546 24.3294C35.8678 24.3294 35.7244 24.3749 35.7459 24.7016C35.7731 25.2272 35.766 25.7543 35.7459 26.2799C35.7359 26.5513 35.8147 26.655 36.1044 26.6536C38.9929 26.645 41.8809 26.645 44.7684 26.6536C45.0553 26.6536 45.137 26.547 45.127 26.2771C45.1098 25.7841 45.0997 25.2897 45.127 24.7982C45.1499 24.4374 45.0481 24.318 44.6637 24.3251C43.2812 24.3436 41.8871 24.3294 40.4931 24.3294H40.4874Z" fill="#59443E"/>
</svg>
