<svg width="47" height="47" viewBox="0 0 47 47" fill="none" xmlns="http://www.w3.org/2000/svg">
<path d="M47 21.2115C46.7998 20.333 46.7064 19.4339 46.489 18.5573C45.4438 14.3501 43.3093 10.8476 40.2337 7.96133C37.1932 5.10705 33.6435 3.27403 29.6744 2.31289C29.1527 2.18699 28.6211 2.10243 28.0931 2.00002C28.0627 1.99966 28.0324 2.00411 28.0033 2.01319C27.9773 2.1776 28.1111 2.2556 28.1829 2.35331C30.7996 5.75439 32.3908 9.65434 33.2825 13.885C34.0009 17.3058 34.2137 20.7718 34.0305 24.2668C33.9919 25.0184 33.9039 24.9245 34.6465 24.9639C35.9342 25.0325 37.0917 24.637 38.1307 23.8581C38.8607 23.3104 39.6411 22.99 40.5552 23.13C40.9144 23.1854 41.2808 23.2662 41.5547 23.5058C43.1495 24.9151 45.0307 25.103 46.9973 24.9602L47 21.2115Z" fill="#59443E"/>
<path d="M30.9584 23.6116C31.0475 21.622 30.9934 19.6283 30.7963 17.647C30.4329 14.0624 29.4982 10.5638 28.0296 7.29169C27.2987 5.64654 26.3979 4.08707 25.3426 2.6402C25.1657 2.4151 25.0763 2.13038 25.0919 1.8413C25.1098 1.33635 25.0919 0.827684 25.0999 0.323649C25.1062 0.0988144 25.0587 -0.00528833 24.8088 0.000240397C24.1093 0.0159051 23.408 0.0149837 22.7085 0.000240397C22.4667 -0.00528833 22.3825 0.0840657 22.4147 0.318115C22.4147 0.332858 22.4147 0.348545 22.4147 0.363288C22.6127 1.71322 22.0923 2.78488 21.3982 3.91826C18.7757 8.19934 17.1572 12.8693 16.6754 17.929C16.5052 19.7166 16.4962 21.5088 16.5321 23.3029C16.5383 23.6632 16.6216 23.6807 16.9038 23.5001C18.0001 22.8072 19.0972 22.8385 20.181 23.5489C20.8205 23.9682 21.4429 24.4234 22.1935 24.6196C22.3673 24.6648 22.4497 24.7514 22.4327 24.9366C22.4255 25.0131 22.4327 25.0905 22.4327 25.167C22.4327 30.6232 22.4327 36.0795 22.4327 41.5357C22.4327 42.8469 21.8487 43.7389 20.7846 44.0798C19.3256 44.5461 17.829 43.5076 17.7672 41.9356C17.7197 40.8188 17.7358 39.6983 17.7528 38.5806C17.7582 38.2332 17.6588 38.13 17.3247 38.1429C16.67 38.1678 16.0135 38.1512 15.3588 38.1494C15.1707 38.1494 15.0005 38.1392 15.0094 38.4258C15.0462 39.773 14.9288 41.1247 15.0784 42.4682C15.365 45.0418 17.5701 47.0137 20.121 46.9999C22.6718 46.9861 24.8527 44.9727 25.1098 42.4028C25.1448 42.0526 25.1625 41.7007 25.1626 41.3486C25.1626 35.9686 25.1608 30.5888 25.1572 25.2094C25.1572 24.8316 25.2396 24.6399 25.6212 24.5441C26.2365 24.3893 26.7542 24.005 27.2701 23.6447C28.4255 22.8394 29.5872 22.7758 30.7784 23.5526C30.8367 23.5774 30.8969 23.5972 30.9584 23.6116V23.6116Z" fill="#59443E"/>
<path d="M19 2C17.8688 2.14766 16.7525 2.40287 15.6647 2.76245C11.4659 4.1096 7.84928 6.44667 4.95011 9.94852C1.61834 13.9712 -0.0462026 18.6613 0.00097448 24.017C0.00987583 25.0192 0.000957927 25.0154 0.963193 24.9571C2.12927 24.8875 3.30515 24.8706 4.36085 24.2323C4.65756 24.0543 4.94951 23.8707 5.23673 23.6814C6.40993 22.9143 7.58401 22.8832 8.72783 23.7218C9.87166 24.5604 11.0831 25.0624 12.4967 24.9938C12.8919 24.974 12.9898 24.865 12.964 24.4551C12.7452 21.0679 12.9584 17.665 13.5978 14.3378C14.3562 10.427 15.7234 6.77755 17.9194 3.50227C18.2505 3.00872 18.6119 2.53773 19 2Z" fill="#59443E"/>
</svg>
