<svg width="44" height="45" viewBox="0 0 44 45" fill="none" xmlns="http://www.w3.org/2000/svg">
<path d="M6.93734 45H6.23637C4.78303 44.4729 4.7036 43.092 5.52023 42.0533C6.85441 40.3575 8.09045 38.5842 9.37556 36.8431C9.84287 36.2087 9.84286 36.2099 9.32764 35.6029C5.95948 31.6055 4.55638 26.9726 5.12183 21.7445C5.55759 17.69 7.21656 14.1839 10.0345 11.3087C13.9576 7.30424 18.737 5.58461 24.263 6.08428C27.0359 6.32966 29.7032 7.28537 32.018 8.86287C36.2238 11.6987 38.7847 15.6698 39.7077 20.7309C40.1941 23.4055 40.0569 26.1594 39.307 28.7697C38.5698 31.4605 37.2072 33.9298 35.3348 35.9678C35.149 36.1705 35.1818 36.2933 35.3278 36.4853C35.8173 37.1281 36.2893 37.784 36.7683 38.4351C37.7158 39.7266 38.6714 41.011 39.6084 42.3108C40.3257 43.3054 40.0325 44.3978 38.9343 44.9046C38.8872 44.9323 38.8426 44.9642 38.8011 45H38.1001C37.5639 44.8295 37.197 44.4562 36.8687 44.003C35.6362 42.3013 34.385 40.6127 33.1408 38.9205C32.7202 38.3481 32.7214 38.3505 32.1337 38.7488C28.7913 41.0146 25.103 41.9913 21.1156 41.6872C18.0616 41.4669 15.125 40.3971 12.6245 38.5938C12.3418 38.3922 12.2016 38.3898 11.9831 38.6939C10.7284 40.4338 9.4433 42.1522 8.18506 43.8886C7.84859 44.3584 7.48643 44.7853 6.93734 45ZM24.0807 18.9671C24.0807 17.3835 24.0912 15.7986 24.0807 14.2149C24.0702 13.0355 23.083 12.2628 22.0269 12.58C21.3002 12.7982 20.8902 13.435 20.889 14.3688C20.889 17.226 20.889 20.0834 20.889 22.9407C20.8976 23.2048 20.8149 23.4635 20.6553 23.6717C19.4037 25.3595 18.1575 27.0513 16.9168 28.7471C16.7079 29.013 16.5151 29.2918 16.3397 29.5818C16.2129 29.803 16.14 30.0521 16.1273 30.308C16.1146 30.564 16.1623 30.8193 16.2666 31.0524C16.3708 31.2856 16.5285 31.4897 16.7262 31.6476C16.924 31.8055 17.156 31.9126 17.4028 31.9597C18.1517 32.1112 18.6879 31.7677 19.1167 31.1774C20.6098 29.1382 22.106 27.1022 23.6053 25.0693C23.9262 24.6455 24.0956 24.1225 24.0854 23.587C24.0749 22.0451 24.0807 20.5055 24.0807 18.9671Z" fill="#59443E"/>
<path d="M0 7.77189C0.125973 6.92822 0.222768 6.08454 0.507373 5.26895C1.72511 1.78546 5.35967 -0.436623 9.01054 0.0723868C10.6289 0.281341 12.1428 0.988605 13.3438 2.09673C14.2046 2.88189 14.2221 3.81566 13.3753 4.67103C10.5821 7.47936 7.78698 10.2842 4.98992 13.0855C4.81496 13.2598 4.64699 13.4365 4.45803 13.5992C3.78384 14.1667 2.86937 14.1316 2.26283 13.4939C0.977011 12.1707 0.200441 10.4331 0.0711353 8.58982C0.0583047 8.43419 0.0244947 8.27973 0 8.12176V7.77189Z" fill="#59443E"/>
<path d="M44 7.8988C43.9546 10.0638 43.2394 11.8696 41.8111 13.3862C41.0761 14.1682 40.1352 14.2147 39.3687 13.4582C36.4223 10.5274 33.4821 7.5893 30.5481 4.6438C29.7898 3.88264 29.8235 2.9332 30.6168 2.21154C32.8707 0.16395 35.5016 -0.507726 38.4011 0.389403C41.3378 1.29699 43.1312 3.36202 43.836 6.35439C43.9415 6.86253 43.9964 7.37986 44 7.8988Z" fill="#59443E"/>
</svg>
