<svg width="59" height="54" viewBox="0 0 59 54" fill="none" xmlns="http://www.w3.org/2000/svg">
<path d="M20.9034 53.4019C19.4874 53.4019 18.0714 53.4206 16.6555 53.4019C15.4079 53.379 14.7467 52.8364 14.9151 51.6304C15.2644 49.1353 14.2041 47.5946 12.156 46.2846C10.2181 45.0371 8.55266 43.4008 6.90173 41.7727C5.12605 40.0262 4.05316 37.9094 3.31711 35.5765C1.64123 30.2495 0.880221 24.7645 0.503877 19.217C0.383281 17.4351 1.45199 16.0981 3.13203 15.7841C4.53552 15.5242 5.81219 16.3975 6.41725 18.0277C6.70627 18.8032 6.96825 19.5892 7.30093 20.344C7.97669 21.8743 8.52975 23.3319 8.32183 25.1429C8.02865 27.6858 9.6567 29.6132 11.1808 31.4658C11.948 32.3994 12.7423 33.3101 13.5387 34.2167C14.0086 34.7531 14.5346 35.2729 15.2936 34.7323C15.9381 34.2749 15.8633 33.5867 15.0856 32.7841C13.9353 31.594 12.8478 30.3448 11.8275 29.0415C11.0311 28.0227 10.4094 26.9164 10.2722 25.6003C10.0643 23.6395 11.4532 22.0781 13.3245 22.1072C13.6375 22.0941 13.9489 22.1575 14.2319 22.292C14.5149 22.4264 14.7608 22.6277 14.9484 22.8786C17.3458 26.2657 20.3357 29.1641 22.8204 32.4826C25.2552 35.7325 26.0787 39.5043 26.5465 43.3966C26.8729 46.0997 26.927 48.8359 26.9436 51.5639C26.9436 52.8447 26.4446 53.3874 25.1472 53.4061C23.7353 53.4186 22.3193 53.4019 20.9034 53.4019Z" fill="#59443E"/>
<path d="M38.5251 53.1503C37.0405 53.1503 35.5539 53.1649 34.0693 53.1503C33.1503 53.1378 32.5078 52.6991 32.5182 51.726C32.566 46.6547 32.6304 41.598 34.3645 36.7139C35.4354 33.6927 37.4398 31.3557 39.4442 28.9895C41.0057 27.1473 42.6296 25.3549 44.0414 23.39C44.9895 22.0739 45.8836 21.6912 47.0958 22.0925C47.7434 22.299 48.3036 22.7156 48.6878 23.2764C49.0719 23.8372 49.258 24.5101 49.2167 25.1886C49.1647 26.5463 48.5929 27.7169 47.7965 28.7878C46.8421 30.0582 45.763 31.2247 44.6901 32.3953C44.4538 32.6468 44.2317 32.9113 44.0247 33.1875C43.7045 33.6241 43.6443 34.0857 44.058 34.4953C44.4718 34.9049 45.0623 34.9943 45.449 34.5702C47.5823 32.2372 49.9839 30.0935 51.0069 26.9476C51.3002 26.0199 51.3481 25.0321 51.1462 24.0803C51.0221 23.4471 51.106 22.7907 51.3853 22.209C51.9696 20.8117 52.6328 19.4478 53.0944 18.0006C53.6184 16.3809 54.918 15.5367 56.3817 15.7633C58.0202 16.019 59.1118 17.1793 58.9912 18.9613C58.5754 25.0597 57.7561 31.0916 55.6228 36.8781C54.527 39.8556 52.3251 41.9307 50.0421 43.9476C48.7151 45.1582 47.2947 46.2622 45.7942 47.2494C45.4332 47.4563 45.1367 47.7592 44.9374 48.1244C44.7381 48.4896 44.6439 48.9028 44.6652 49.3183C44.6652 50.0086 44.6797 50.701 44.6652 51.3976C44.6277 52.6451 44.1204 53.1524 42.8832 53.1628C41.4257 53.1607 39.9764 53.1503 38.5251 53.1503Z" fill="#59443E"/>
<path d="M36.0569 11.4157C35.9135 14.705 34.4517 17.3935 32.4494 19.8408C31.9275 20.4812 31.3641 21.0882 30.786 21.6808C30.208 22.2734 29.4325 22.394 28.8399 21.8139C25.7626 18.8011 23.2945 15.4369 23.4525 10.8501C23.5565 7.78108 25.0847 5.27971 26.9602 2.97174C27.5064 2.30747 28.0984 1.68218 28.7317 1.10042C29.3015 0.57021 30.0479 0.487114 30.6031 1.0194C33.6305 3.85134 35.8261 7.14487 36.0569 11.4157Z" fill="#59443E"/>
<path d="M26.5634 22.6873C22.2302 22.9368 16.8783 20.7931 14.8573 16.3456C13.7095 13.8172 13.2812 11.1475 13.302 8.39664C13.302 7.37573 13.8363 6.79978 14.797 6.78522C16.9033 6.73329 19.0041 7.02251 21.0181 7.6418C21.3902 7.76031 21.7604 7.81853 21.6169 8.4735C20.4421 13.7569 22.5297 18.0381 25.8565 21.918C26.0706 22.1633 26.3014 22.4004 26.5634 22.6873Z" fill="#59443E"/>
<path d="M32.8843 22.7393C34.7681 20.6309 36.3338 18.5453 37.3068 16.0752C38.2259 13.7402 38.5086 11.3366 37.9451 8.87894C37.7809 8.1616 37.9244 7.85176 38.6521 7.65424C40.5537 7.15977 42.5092 6.90282 44.474 6.88914C45.628 6.86834 46.2102 7.38399 46.1956 8.48807C46.1457 12.316 45.4929 15.9734 42.8688 18.9924C41.2824 20.8201 39.1865 21.7246 36.9201 22.3026C35.6093 22.6758 34.2446 22.8235 32.8843 22.7393V22.7393Z" fill="#59443E"/>
</svg>
